<?xml version="1.0" encoding="UTF-8" standalone="no"?>
<!DOCTYPE svg PUBLIC "-//W3C//DTD SVG 1.1//EN"
 "http://www.w3.org/Graphics/SVG/1.1/DTD/svg11.dtd">
<!-- Generated by graphviz version 2.38.0 (20140413.2041)
 -->
<!-- Title: Patricia; 65 samples Pages: 1 -->
<svg width="100%" height="100%"
  xmlns="http://www.w3.org/2000/svg" xmlns:xlink="http://www.w3.org/1999/xlink">
<script type="text/ecmascript"><![CDATA[
// SVGPan
// http://www.cyberz.org/blog/2009/12/08/svgpan-a-javascript-svg-panzoomdrag-library/
// Local modification: if(true || ...) below to force panning, never moving.

/**
 *  SVGPan library 1.2
 * ====================
 *
 * Given an unique existing element with id "viewport", including the
 * the library into any SVG adds the following capabilities:
 *
 *  - Mouse panning
 *  - Mouse zooming (using the wheel)
 *  - Object dargging
 *
 * Known issues:
 *
 *  - Zooming (while panning) on Safari has still some issues
 *
 * Releases:
 *
 * 1.2, Sat Mar 20 08:42:50 GMT 2010, Zeng Xiaohui
 *	Fixed a bug with browser mouse handler interaction
 *
 * 1.1, Wed Feb  3 17:39:33 GMT 2010, Zeng Xiaohui
 *	Updated the zoom code to support the mouse wheel on Safari/Chrome
 *
 * 1.0, Andrea Leofreddi
 *	First release
 *
 * This code is licensed under the following BSD license:
 *
 * Copyright 2009-2010 Andrea Leofreddi <a.leofreddi@itcharm.com>. All rights reserved.
 *
 * Redistribution and use in source and binary forms, with or without modification, are
 * permitted provided that the following conditions are met:
 *
 *    1. Redistributions of source code must retain the above copyright notice, this list of
 *       conditions and the following disclaimer.
 *
 *    2. Redistributions in binary form must reproduce the above copyright notice, this list
 *       of conditions and the following disclaimer in the documentation and/or other materials
 *       provided with the distribution.
 *
 * THIS SOFTWARE IS PROVIDED BY Andrea Leofreddi ``AS IS'' AND ANY EXPRESS OR IMPLIED
 * WARRANTIES, INCLUDING, BUT NOT LIMITED TO, THE IMPLIED WARRANTIES OF MERCHANTABILITY AND
 * FITNESS FOR A PARTICULAR PURPOSE ARE DISCLAIMED. IN NO EVENT SHALL Andrea Leofreddi OR
 * CONTRIBUTORS BE LIABLE FOR ANY DIRECT, INDIRECT, INCIDENTAL, SPECIAL, EXEMPLARY, OR
 * CONSEQUENTIAL DAMAGES (INCLUDING, BUT NOT LIMITED TO, PROCUREMENT OF SUBSTITUTE GOODS OR
 * SERVICES; LOSS OF USE, DATA, OR PROFITS; OR BUSINESS INTERRUPTION) HOWEVER CAUSED AND ON
 * ANY THEORY OF LIABILITY, WHETHER IN CONTRACT, STRICT LIABILITY, OR TORT (INCLUDING
 * NEGLIGENCE OR OTHERWISE) ARISING IN ANY WAY OUT OF THE USE OF THIS SOFTWARE, EVEN IF
 * ADVISED OF THE POSSIBILITY OF SUCH DAMAGE.
 *
 * The views and conclusions contained in the software and documentation are those of the
 * authors and should not be interpreted as representing official policies, either expressed
 * or implied, of Andrea Leofreddi.
 */

var root = document.documentElement;

var state = 'none', stateTarget, stateOrigin, stateTf;

setupHandlers(root);

/**
 * Register handlers
 */
function setupHandlers(root){
	setAttributes(root, {
		"onmouseup" : "add(evt)",
		"onmousedown" : "handleMouseDown(evt)",
		"onmousemove" : "handleMouseMove(evt)",
		"onmouseup" : "handleMouseUp(evt)",
		//"onmouseout" : "handleMouseUp(evt)", // Decomment this to stop the pan functionality when dragging out of the SVG element
	});

	if(navigator.userAgent.toLowerCase().indexOf('webkit') >= 0)
		window.addEventListener('mousewheel', handleMouseWheel, false); // Chrome/Safari
	else
		window.addEventListener('DOMMouseScroll', handleMouseWheel, false); // Others

	var g = svgDoc.getElementById("svg");
	g.width = "100%";
	g.height = "100%";
}

/**
 * Instance an SVGPoint object with given event coordinates.
 */
function getEventPoint(evt) {
	var p = root.createSVGPoint();

	p.x = evt.clientX;
	p.y = evt.clientY;

	return p;
}

/**
 * Sets the current transform matrix of an element.
 */
function setCTM(element, matrix) {
	var s = "matrix(" + matrix.a + "," + matrix.b + "," + matrix.c + "," + matrix.d + "," + matrix.e + "," + matrix.f + ")";

	element.setAttribute("transform", s);
}

/**
 * Dumps a matrix to a string (useful for debug).
 */
function dumpMatrix(matrix) {
	var s = "[ " + matrix.a + ", " + matrix.c + ", " + matrix.e + "\n  " + matrix.b + ", " + matrix.d + ", " + matrix.f + "\n  0, 0, 1 ]";

	return s;
}

/**
 * Sets attributes of an element.
 */
function setAttributes(element, attributes){
	for (i in attributes)
		element.setAttributeNS(null, i, attributes[i]);
}

/**
 * Handle mouse move event.
 */
function handleMouseWheel(evt) {
	if(evt.preventDefault)
		evt.preventDefault();

	evt.returnValue = false;

	var svgDoc = evt.target.ownerDocument;

	var delta;

	if(evt.wheelDelta)
		delta = evt.wheelDelta / 3600; // Chrome/Safari
	else
		delta = evt.detail / -90; // Mozilla

	var z = 1 + delta; // Zoom factor: 0.9/1.1

	var g = svgDoc.getElementById("viewport");

	var p = getEventPoint(evt);

	p = p.matrixTransform(g.getCTM().inverse());

	// Compute new scale matrix in current mouse position
	var k = root.createSVGMatrix().translate(p.x, p.y).scale(z).translate(-p.x, -p.y);

        setCTM(g, g.getCTM().multiply(k));

	stateTf = stateTf.multiply(k.inverse());
}

/**
 * Handle mouse move event.
 */
function handleMouseMove(evt) {
	if(evt.preventDefault)
		evt.preventDefault();

	evt.returnValue = false;

	var svgDoc = evt.target.ownerDocument;

	var g = svgDoc.getElementById("viewport");

	if(state == 'pan') {
		// Pan mode
		var p = getEventPoint(evt).matrixTransform(stateTf);

		setCTM(g, stateTf.inverse().translate(p.x - stateOrigin.x, p.y - stateOrigin.y));
	} else if(state == 'move') {
		// Move mode
		var p = getEventPoint(evt).matrixTransform(g.getCTM().inverse());

		setCTM(stateTarget, root.createSVGMatrix().translate(p.x - stateOrigin.x, p.y - stateOrigin.y).multiply(g.getCTM().inverse()).multiply(stateTarget.getCTM()));

		stateOrigin = p;
	}
}

/**
 * Handle click event.
 */
function handleMouseDown(evt) {
	if(evt.preventDefault)
		evt.preventDefault();

	evt.returnValue = false;

	var svgDoc = evt.target.ownerDocument;

	var g = svgDoc.getElementById("viewport");

	if(true || evt.target.tagName == "svg") {
		// Pan mode
		state = 'pan';

		stateTf = g.getCTM().inverse();

		stateOrigin = getEventPoint(evt).matrixTransform(stateTf);
	} else {
		// Move mode
		state = 'move';

		stateTarget = evt.target;

		stateTf = g.getCTM().inverse();

		stateOrigin = getEventPoint(evt).matrixTransform(stateTf);
	}
}

/**
 * Handle mouse button release event.
 */
function handleMouseUp(evt) {
	if(evt.preventDefault)
		evt.preventDefault();

	evt.returnValue = false;

	var svgDoc = evt.target.ownerDocument;

	if(state == 'pan' || state == 'move') {
		// Quit pan mode
		state = '';
	}
}

]]></script>
<g id="viewport" transform="translate(0,0)">
<g id="viewport" class="graph" transform="scale(1 1) rotate(0) translate(4 1280)">
<title>Patricia; 65 samples</title>
<polygon fill="white" stroke="none" points="-4,4 -4,-1280 1123.5,-1280 1123.5,4 -4,4"/>
<!-- Legend -->
<g id="node1" class="node"><title>Legend</title>
<text text-anchor="start" x="8" y="-1252.8" font-family="Times,serif" font-size="24.00">Patricia</text>
<text text-anchor="start" x="8" y="-1226.8" font-family="Times,serif" font-size="24.00">Total samples: 65</text>
<text text-anchor="start" x="8" y="-1200.8" font-family="Times,serif" font-size="24.00">Focusing on: 65</text>
<text text-anchor="start" x="8" y="-1174.8" font-family="Times,serif" font-size="24.00">Dropped nodes with &lt;= 0 abs(samples)</text>
<text text-anchor="start" x="8" y="-1148.8" font-family="Times,serif" font-size="24.00">Dropped edges with &lt;= 0 samples</text>
</g>
<!-- N1 -->
<g id="node2" class="node"><title>N1</title>
<polygon fill="none" stroke="black" points="479,-1087 405,-1087 405,-1052 479,-1052 479,-1087"/>
<text text-anchor="middle" x="442" y="-1076.6" font-family="Times,serif" font-size="8.00">__libc_start_main</text>
<text text-anchor="end" x="471" y="-1067.6" font-family="Times,serif" font-size="8.00">0 (0.0%)</text>
<text text-anchor="end" x="471" y="-1058.6" font-family="Times,serif" font-size="8.00">of 65 (100.0%)</text>
</g>
<!-- N3 -->
<g id="node4" class="node"><title>N3</title>
<polygon fill="none" stroke="black" points="474.5,-1001 409.5,-1001 409.5,-966 474.5,-966 474.5,-1001"/>
<text text-anchor="middle" x="442" y="-990.6" font-family="Times,serif" font-size="8.00">main</text>
<text text-anchor="end" x="466.5" y="-981.6" font-family="Times,serif" font-size="8.00">0 (0.0%)</text>
<text text-anchor="end" x="466.5" y="-972.6" font-family="Times,serif" font-size="8.00">of 65 (100.0%)</text>
</g>
<!-- N1&#45;&gt;N3 -->
<g id="edge1" class="edge"><title>N1&#45;&gt;N3</title>
<path fill="none" stroke="black" stroke-width="2" d="M442,-1051.9C442,-1040.28 442,-1024.51 442,-1011.14"/>
<polygon fill="black" stroke="black" stroke-width="2" points="445.5,-1011.06 442,-1001.06 438.5,-1011.06 445.5,-1011.06"/>
<text text-anchor="middle" x="449" y="-1022.8" font-family="Times,serif" font-size="14.00">65</text>
</g>
<!-- N2 -->
<g id="node3" class="node"><title>N2</title>
<polygon fill="none" stroke="black" points="474.5,-1224.5 409.5,-1224.5 409.5,-1189.5 474.5,-1189.5 474.5,-1224.5"/>
<text text-anchor="middle" x="442" y="-1214.1" font-family="Times,serif" font-size="8.00">_start</text>
<text text-anchor="end" x="466.5" y="-1205.1" font-family="Times,serif" font-size="8.00">0 (0.0%)</text>
<text text-anchor="end" x="466.5" y="-1196.1" font-family="Times,serif" font-size="8.00">of 65 (100.0%)</text>
</g>
<!-- N2&#45;&gt;N1 -->
<g id="edge2" class="edge"><title>N2&#45;&gt;N1</title>
<path fill="none" stroke="black" stroke-width="2" d="M442,-1189.39C442,-1166.43 442,-1124.74 442,-1097.33"/>
<polygon fill="black" stroke="black" stroke-width="2" points="445.5,-1097.25 442,-1087.25 438.5,-1097.25 445.5,-1097.25"/>
<text text-anchor="middle" x="449" y="-1108.8" font-family="Times,serif" font-size="14.00">65</text>
</g>
<!-- N4 -->
<g id="node5" class="node"><title>N4</title>
<polygon fill="none" stroke="black" points="531,-915 353,-915 353,-783 531,-783 531,-915"/>
<text text-anchor="middle" x="442" y="-888.12" font-family="Times,serif" font-size="28.60">std</text>
<text text-anchor="middle" x="442" y="-857.12" font-family="Times,serif" font-size="28.60">operator&gt;&gt;</text>
<text text-anchor="end" x="523" y="-826.12" font-family="Times,serif" font-size="28.60">11 (16.9%)</text>
<text text-anchor="end" x="523" y="-795.12" font-family="Times,serif" font-size="28.60">of 53 (81.5%)</text>
</g>
<!-- N3&#45;&gt;N4 -->
<g id="edge3" class="edge"><title>N3&#45;&gt;N4</title>
<path fill="none" stroke="black" stroke-width="2" d="M442,-965.987C442,-955.345 442,-940.668 442,-925.33"/>
<polygon fill="black" stroke="black" stroke-width="2" points="445.5,-925.191 442,-915.191 438.5,-925.191 445.5,-925.191"/>
<text text-anchor="middle" x="449" y="-936.8" font-family="Times,serif" font-size="14.00">53</text>
</g>
<!-- N17 -->
<g id="node18" class="node"><title>N17</title>
<polygon fill="none" stroke="black" points="729,-889 621,-889 621,-809 729,-809 729,-889"/>
<text text-anchor="middle" x="675" y="-871.56" font-family="Times,serif" font-size="16.80">TPatriciaTree</text>
<text text-anchor="middle" x="675" y="-853.56" font-family="Times,serif" font-size="16.80">Remove</text>
<text text-anchor="end" x="721" y="-835.56" font-family="Times,serif" font-size="16.80">2 (3.1%)</text>
<text text-anchor="end" x="721" y="-817.56" font-family="Times,serif" font-size="16.80">of 3 (4.6%)</text>
</g>
<!-- N3&#45;&gt;N17 -->
<g id="edge18" class="edge"><title>N3&#45;&gt;N17</title>
<path fill="none" stroke="black" d="M474.664,-974.022C510.42,-963.757 568.454,-944.139 612,-915 619.865,-909.737 627.516,-903.353 634.618,-896.668"/>
<polygon fill="black" stroke="black" points="637.407,-898.835 642.094,-889.333 632.505,-893.838 637.407,-898.835"/>
<text text-anchor="middle" x="580.5" y="-936.8" font-family="Times,serif" font-size="14.00">3</text>
</g>
<!-- N18 -->
<g id="node19" class="node"><title>N18</title>
<polygon fill="none" stroke="black" points="913.5,-884.5 828.5,-884.5 828.5,-813.5 913.5,-813.5 913.5,-884.5"/>
<text text-anchor="middle" x="871" y="-865.54" font-family="Times,serif" font-size="18.70">ToLower</text>
<text text-anchor="middle" x="871" y="-844.54" font-family="Times,serif" font-size="18.70">(inline)</text>
<text text-anchor="end" x="905.5" y="-823.54" font-family="Times,serif" font-size="18.70">3 (4.6%)</text>
</g>
<!-- N3&#45;&gt;N18 -->
<g id="edge17" class="edge"><title>N3&#45;&gt;N18</title>
<path fill="none" stroke="black" stroke-dasharray="5,2" d="M474.621,-980.116C555.682,-973.66 763.764,-953.666 820,-915 828.778,-908.965 836.755,-900.961 843.657,-892.638"/>
<polygon fill="black" stroke="black" points="846.529,-894.648 849.936,-884.616 841.016,-890.333 846.529,-894.648"/>
<text text-anchor="middle" x="781.5" y="-936.8" font-family="Times,serif" font-size="14.00">3</text>
</g>
<!-- N19 -->
<g id="node20" class="node"><title>N19</title>
<polygon fill="none" stroke="black" points="1036,-880 932,-880 932,-818 1036,-818 1036,-880"/>
<text text-anchor="middle" x="984" y="-862.56" font-family="Times,serif" font-size="16.80">LengthString</text>
<text text-anchor="middle" x="984" y="-844.56" font-family="Times,serif" font-size="16.80">(inline)</text>
<text text-anchor="end" x="1028" y="-826.56" font-family="Times,serif" font-size="16.80">2 (3.1%)</text>
</g>
<!-- N3&#45;&gt;N19 -->
<g id="edge21" class="edge"><title>N3&#45;&gt;N19</title>
<path fill="none" stroke="black" stroke-dasharray="5,2" d="M474.583,-981.124C569.899,-976.608 846.301,-959.867 923,-915 934.922,-908.026 945.946,-898.014 955.248,-887.931"/>
<polygon fill="black" stroke="black" points="958.027,-890.071 962.012,-880.255 952.775,-885.443 958.027,-890.071"/>
<text text-anchor="middle" x="871.5" y="-936.8" font-family="Times,serif" font-size="14.00">2</text>
</g>
<!-- N21 -->
<g id="node22" class="node"><title>N21</title>
<polygon fill="none" stroke="black" points="810.5,-871 747.5,-871 747.5,-827 810.5,-827 810.5,-871"/>
<text text-anchor="middle" x="779" y="-860.6" font-family="Times,serif" font-size="8.00">TPatriciaTree</text>
<text text-anchor="middle" x="779" y="-851.6" font-family="Times,serif" font-size="8.00">Insert</text>
<text text-anchor="end" x="802.5" y="-842.6" font-family="Times,serif" font-size="8.00">0 (0.0%)</text>
<text text-anchor="end" x="802.5" y="-833.6" font-family="Times,serif" font-size="8.00">of 2 (3.1%)</text>
</g>
<!-- N3&#45;&gt;N21 -->
<g id="edge22" class="edge"><title>N3&#45;&gt;N21</title>
<path fill="none" stroke="black" d="M474.581,-982.894C532.808,-982.022 656.269,-972.872 738,-915 750.148,-906.398 759.494,-892.949 766.174,-880.511"/>
<polygon fill="black" stroke="black" points="769.439,-881.806 770.764,-871.294 763.173,-878.685 769.439,-881.806"/>
<text text-anchor="middle" x="705.5" y="-936.8" font-family="Times,serif" font-size="14.00">2</text>
</g>
<!-- N27 -->
<g id="node28" class="node"><title>N27</title>
<polygon fill="none" stroke="black" points="603,-880 549,-880 549,-818 603,-818 603,-880"/>
<text text-anchor="middle" x="576" y="-869.6" font-family="Times,serif" font-size="8.00">std</text>
<text text-anchor="middle" x="576" y="-860.6" font-family="Times,serif" font-size="8.00">istream</text>
<text text-anchor="middle" x="576" y="-851.6" font-family="Times,serif" font-size="8.00">operator&gt;&gt;</text>
<text text-anchor="middle" x="576" y="-842.6" font-family="Times,serif" font-size="8.00">(inline)</text>
<text text-anchor="end" x="595" y="-833.6" font-family="Times,serif" font-size="8.00">0 (0.0%)</text>
<text text-anchor="end" x="595" y="-824.6" font-family="Times,serif" font-size="8.00">of 1 (1.5%)</text>
</g>
<!-- N3&#45;&gt;N27 -->
<g id="edge27" class="edge"><title>N3&#45;&gt;N27</title>
<path fill="none" stroke="black" stroke-dasharray="5,2" d="M473.514,-965.893C494.255,-953.821 520.984,-935.963 540,-915 546.955,-907.332 553.087,-898.085 558.229,-889.001"/>
<polygon fill="black" stroke="black" points="561.395,-890.504 563.035,-880.036 555.225,-887.196 561.395,-890.504"/>
<text text-anchor="middle" x="521.5" y="-936.8" font-family="Times,serif" font-size="14.00">1</text>
</g>
<!-- N28 -->
<g id="node29" class="node"><title>N28</title>
<polygon fill="none" stroke="black" points="1119.5,-885 1054.5,-885 1054.5,-813 1119.5,-813 1119.5,-885"/>
<text text-anchor="middle" x="1087" y="-869.64" font-family="Times,serif" font-size="14.20">std</text>
<text text-anchor="middle" x="1087" y="-853.64" font-family="Times,serif" font-size="14.20">istream</text>
<text text-anchor="middle" x="1087" y="-837.64" font-family="Times,serif" font-size="14.20">putback</text>
<text text-anchor="end" x="1111.5" y="-821.64" font-family="Times,serif" font-size="14.20">1 (1.5%)</text>
</g>
<!-- N3&#45;&gt;N28 -->
<g id="edge31" class="edge"><title>N3&#45;&gt;N28</title>
<path fill="none" stroke="black" d="M474.672,-982.753C586.306,-983.031 950.89,-978.927 1045,-915 1053.08,-909.509 1059.96,-901.891 1065.67,-893.798"/>
<polygon fill="black" stroke="black" points="1068.7,-895.558 1071.2,-885.262 1062.83,-891.754 1068.7,-895.558"/>
<text text-anchor="middle" x="1004.5" y="-936.8" font-family="Times,serif" font-size="14.00">1</text>
</g>
<!-- N5 -->
<g id="node6" class="node"><title>N5</title>
<polygon fill="none" stroke="black" points="711,-367 415,-367 415,-289 711,-289 711,-367"/>
<text text-anchor="middle" x="563" y="-337.4" font-family="Times,serif" font-size="32.00">_IO_acquire_lock_fct</text>
<text text-anchor="end" x="703" y="-302.4" font-family="Times,serif" font-size="32.00">15 (23.1%)</text>
</g>
<!-- N4&#45;&gt;N5 -->
<g id="edge23" class="edge"><title>N4&#45;&gt;N5</title>
<path fill="none" stroke="black" d="M531.318,-782.909C554.61,-764.057 575.136,-745.063 582,-732 646.983,-608.341 610.573,-556.932 596,-418 594.436,-403.089 593.743,-399.223 589,-385 588.078,-382.235 587.059,-379.426 585.973,-376.614"/>
<polygon fill="black" stroke="black" points="589.103,-375.02 582.072,-367.095 582.626,-377.675 589.103,-375.02"/>
<text text-anchor="middle" x="622.5" y="-550.3" font-family="Times,serif" font-size="14.00">1</text>
</g>
<!-- N6 -->
<g id="node7" class="node"><title>N6</title>
<polygon fill="none" stroke="black" points="479.5,-711 404.5,-711 404.5,-658 479.5,-658 479.5,-711"/>
<text text-anchor="middle" x="442" y="-700.6" font-family="Times,serif" font-size="8.00">__gnu_cxx</text>
<text text-anchor="middle" x="442" y="-691.6" font-family="Times,serif" font-size="8.00">stdio_sync_filebuf</text>
<text text-anchor="middle" x="442" y="-682.6" font-family="Times,serif" font-size="8.00">underflow</text>
<text text-anchor="end" x="471.5" y="-673.6" font-family="Times,serif" font-size="8.00">0 (0.0%)</text>
<text text-anchor="end" x="471.5" y="-664.6" font-family="Times,serif" font-size="8.00">of 14 (21.5%)</text>
</g>
<!-- N4&#45;&gt;N6 -->
<g id="edge4" class="edge"><title>N4&#45;&gt;N6</title>
<path fill="none" stroke="black" stroke-width="1.29231" d="M442,-782.841C442,-761.879 442,-739.428 442,-721.375"/>
<polygon fill="black" stroke="black" stroke-width="1.29231" points="445.5,-721.299 442,-711.299 438.5,-721.299 445.5,-721.299"/>
<text text-anchor="middle" x="449" y="-753.8" font-family="Times,serif" font-size="14.00">14</text>
</g>
<!-- N7 -->
<g id="node8" class="node"><title>N7</title>
<polygon fill="none" stroke="black" points="310.5,-732 143.5,-732 143.5,-637 310.5,-637 310.5,-732"/>
<text text-anchor="middle" x="227" y="-706.72" font-family="Times,serif" font-size="26.60">_IO_ungetc</text>
<text text-anchor="end" x="302.5" y="-677.72" font-family="Times,serif" font-size="26.60">9 (13.8%)</text>
<text text-anchor="end" x="302.5" y="-648.72" font-family="Times,serif" font-size="26.60">of 11 (16.9%)</text>
</g>
<!-- N4&#45;&gt;N7 -->
<g id="edge5" class="edge"><title>N4&#45;&gt;N7</title>
<path fill="none" stroke="black" stroke-width="1.01538" d="M355.79,-782.841C336.251,-768.073 315.734,-752.567 296.964,-738.38"/>
<polygon fill="black" stroke="black" stroke-width="1.01538" points="298.842,-735.412 288.754,-732.175 294.622,-740.997 298.842,-735.412"/>
<text text-anchor="middle" x="335" y="-753.8" font-family="Times,serif" font-size="14.00">11</text>
</g>
<!-- N13 -->
<g id="node14" class="node"><title>N13</title>
<polygon fill="none" stroke="black" points="386,-715.5 328,-715.5 328,-653.5 386,-653.5 386,-715.5"/>
<text text-anchor="middle" x="357" y="-705.1" font-family="Times,serif" font-size="8.00">std</text>
<text text-anchor="middle" x="357" y="-696.1" font-family="Times,serif" font-size="8.00">istream</text>
<text text-anchor="middle" x="357" y="-687.1" font-family="Times,serif" font-size="8.00">sentry</text>
<text text-anchor="middle" x="357" y="-678.1" font-family="Times,serif" font-size="8.00">sentry</text>
<text text-anchor="end" x="378" y="-669.1" font-family="Times,serif" font-size="8.00">0 (0.0%)</text>
<text text-anchor="end" x="378" y="-660.1" font-family="Times,serif" font-size="8.00">of 9 (13.8%)</text>
</g>
<!-- N4&#45;&gt;N13 -->
<g id="edge9" class="edge"><title>N4&#45;&gt;N13</title>
<path fill="none" stroke="black" d="M407.917,-782.841C397.707,-763.322 386.822,-742.512 377.747,-725.164"/>
<polygon fill="black" stroke="black" points="380.645,-723.152 372.908,-715.913 374.442,-726.396 380.645,-723.152"/>
<text text-anchor="middle" x="399.5" y="-753.8" font-family="Times,serif" font-size="14.00">9</text>
</g>
<!-- N16 -->
<g id="node17" class="node"><title>N16</title>
<polygon fill="none" stroke="black" points="572.5,-711 497.5,-711 497.5,-658 572.5,-658 572.5,-711"/>
<text text-anchor="middle" x="535" y="-700.6" font-family="Times,serif" font-size="8.00">__gnu_cxx</text>
<text text-anchor="middle" x="535" y="-691.6" font-family="Times,serif" font-size="8.00">stdio_sync_filebuf</text>
<text text-anchor="middle" x="535" y="-682.6" font-family="Times,serif" font-size="8.00">uflow</text>
<text text-anchor="end" x="564.5" y="-673.6" font-family="Times,serif" font-size="8.00">0 (0.0%)</text>
<text text-anchor="end" x="564.5" y="-664.6" font-family="Times,serif" font-size="8.00">of 7 (10.8%)</text>
</g>
<!-- N4&#45;&gt;N16 -->
<g id="edge14" class="edge"><title>N4&#45;&gt;N16</title>
<path fill="none" stroke="black" d="M479.291,-782.841C491.568,-761.389 504.738,-738.378 515.188,-720.117"/>
<polygon fill="black" stroke="black" points="518.305,-721.717 520.235,-711.299 512.23,-718.24 518.305,-721.717"/>
<text text-anchor="middle" x="499.5" y="-753.8" font-family="Times,serif" font-size="14.00">7</text>
</g>
<!-- N6&#45;&gt;N5 -->
<g id="edge6" class="edge"><title>N6&#45;&gt;N5</title>
<path fill="none" stroke="black" d="M437.457,-657.991C432.678,-625.635 427.547,-568.458 441,-522 456.99,-466.778 494.019,-412.182 523.116,-375.225"/>
<polygon fill="black" stroke="black" points="526.061,-377.147 529.57,-367.151 520.592,-372.777 526.061,-377.147"/>
<text text-anchor="middle" x="459" y="-492.8" font-family="Times,serif" font-size="14.00">10</text>
</g>
<!-- N15 -->
<g id="node16" class="node"><title>N15</title>
<polygon fill="none" stroke="black" points="568.5,-586 449.5,-586 449.5,-522 568.5,-522 568.5,-586"/>
<text text-anchor="middle" x="509" y="-561.6" font-family="Times,serif" font-size="25.50">_IO_getc</text>
<text text-anchor="end" x="560.5" y="-533.6" font-family="Times,serif" font-size="25.50">8 (12.3%)</text>
</g>
<!-- N6&#45;&gt;N15 -->
<g id="edge16" class="edge"><title>N6&#45;&gt;N15</title>
<path fill="none" stroke="black" d="M455.397,-657.805C464.736,-639.894 477.382,-615.64 488.046,-595.188"/>
<polygon fill="black" stroke="black" points="491.267,-596.58 492.787,-586.095 485.06,-593.344 491.267,-596.58"/>
<text text-anchor="middle" x="484.5" y="-607.8" font-family="Times,serif" font-size="14.00">4</text>
</g>
<!-- N22 -->
<g id="node23" class="node"><title>N22</title>
<polygon fill="none" stroke="black" points="306.5,-576 147.5,-576 147.5,-532 306.5,-532 306.5,-576"/>
<text text-anchor="middle" x="227" y="-558.56" font-family="Times,serif" font-size="16.80">__GI__IO_sputbackc</text>
<text text-anchor="end" x="298.5" y="-540.56" font-family="Times,serif" font-size="16.80">2 (3.1%)</text>
</g>
<!-- N7&#45;&gt;N22 -->
<g id="edge20" class="edge"><title>N7&#45;&gt;N22</title>
<path fill="none" stroke="black" d="M227,-636.745C227,-619.999 227,-601.537 227,-586.401"/>
<polygon fill="black" stroke="black" points="230.5,-586.04 227,-576.04 223.5,-586.041 230.5,-586.04"/>
<text text-anchor="middle" x="230.5" y="-607.8" font-family="Times,serif" font-size="14.00">2</text>
</g>
<!-- N8 -->
<g id="node9" class="node"><title>N8</title>
<polygon fill="none" stroke="black" points="397,-345.5 317,-345.5 317,-310.5 397,-310.5 397,-345.5"/>
<text text-anchor="middle" x="357" y="-335.1" font-family="Times,serif" font-size="8.00">_IO_new_file_sync</text>
<text text-anchor="end" x="389" y="-326.1" font-family="Times,serif" font-size="8.00">0 (0.0%)</text>
<text text-anchor="end" x="389" y="-317.1" font-family="Times,serif" font-size="8.00">of 9 (13.8%)</text>
</g>
<!-- N12 -->
<g id="node13" class="node"><title>N12</title>
<polygon fill="none" stroke="black" points="388,-238 326,-238 326,-203 388,-203 388,-238"/>
<text text-anchor="middle" x="357" y="-227.6" font-family="Times,serif" font-size="8.00">new_do_write</text>
<text text-anchor="end" x="380" y="-218.6" font-family="Times,serif" font-size="8.00">0 (0.0%)</text>
<text text-anchor="end" x="380" y="-209.6" font-family="Times,serif" font-size="8.00">of 9 (13.8%)</text>
</g>
<!-- N8&#45;&gt;N12 -->
<g id="edge12" class="edge"><title>N8&#45;&gt;N12</title>
<path fill="none" stroke="black" d="M357,-310.05C357,-293.34 357,-267.556 357,-248.112"/>
<polygon fill="black" stroke="black" points="360.5,-248.06 357,-238.061 353.5,-248.061 360.5,-248.06"/>
<text text-anchor="middle" x="360.5" y="-259.8" font-family="Times,serif" font-size="14.00">9</text>
</g>
<!-- N9 -->
<g id="node10" class="node"><title>N9</title>
<polygon fill="none" stroke="black" points="398.5,-152 315.5,-152 315.5,-117 398.5,-117 398.5,-152"/>
<text text-anchor="middle" x="357" y="-141.6" font-family="Times,serif" font-size="8.00">_IO_new_file_write</text>
<text text-anchor="end" x="390.5" y="-132.6" font-family="Times,serif" font-size="8.00">0 (0.0%)</text>
<text text-anchor="end" x="390.5" y="-123.6" font-family="Times,serif" font-size="8.00">of 9 (13.8%)</text>
</g>
<!-- N11 -->
<g id="node12" class="node"><title>N11</title>
<polygon fill="none" stroke="black" points="461.5,-66 252.5,-66 252.5,-0 461.5,-0 461.5,-66"/>
<text text-anchor="middle" x="357" y="-40.72" font-family="Times,serif" font-size="26.60">__write_nocancel</text>
<text text-anchor="end" x="453.5" y="-11.72" font-family="Times,serif" font-size="26.60">9 (13.8%)</text>
</g>
<!-- N9&#45;&gt;N11 -->
<g id="edge10" class="edge"><title>N9&#45;&gt;N11</title>
<path fill="none" stroke="black" d="M357,-116.621C357,-105.556 357,-90.5652 357,-76.3894"/>
<polygon fill="black" stroke="black" points="360.5,-76.279 357,-66.279 353.5,-76.2791 360.5,-76.279"/>
<text text-anchor="middle" x="360.5" y="-87.8" font-family="Times,serif" font-size="14.00">9</text>
</g>
<!-- N10 -->
<g id="node11" class="node"><title>N10</title>
<polygon fill="none" stroke="black" points="393,-462 321,-462 321,-427 393,-427 393,-462"/>
<text text-anchor="middle" x="357" y="-451.6" font-family="Times,serif" font-size="8.00">__GI__IO_fflush</text>
<text text-anchor="end" x="385" y="-442.6" font-family="Times,serif" font-size="8.00">0 (0.0%)</text>
<text text-anchor="end" x="385" y="-433.6" font-family="Times,serif" font-size="8.00">of 9 (13.8%)</text>
</g>
<!-- N10&#45;&gt;N8 -->
<g id="edge7" class="edge"><title>N10&#45;&gt;N8</title>
<path fill="none" stroke="black" d="M357,-426.605C357,-407.979 357,-377.759 357,-355.874"/>
<polygon fill="black" stroke="black" points="360.5,-355.592 357,-345.592 353.5,-355.592 360.5,-355.592"/>
<text text-anchor="middle" x="360.5" y="-388.8" font-family="Times,serif" font-size="14.00">9</text>
</g>
<!-- N12&#45;&gt;N9 -->
<g id="edge8" class="edge"><title>N12&#45;&gt;N9</title>
<path fill="none" stroke="black" d="M357,-202.904C357,-191.284 357,-175.509 357,-162.141"/>
<polygon fill="black" stroke="black" points="360.5,-162.061 357,-152.061 353.5,-162.061 360.5,-162.061"/>
<text text-anchor="middle" x="360.5" y="-173.8" font-family="Times,serif" font-size="14.00">9</text>
</g>
<!-- N14 -->
<g id="node15" class="node"><title>N14</title>
<polygon fill="none" stroke="black" points="386,-580.5 328,-580.5 328,-527.5 386,-527.5 386,-580.5"/>
<text text-anchor="middle" x="357" y="-570.1" font-family="Times,serif" font-size="8.00">std</text>
<text text-anchor="middle" x="357" y="-561.1" font-family="Times,serif" font-size="8.00">ostream</text>
<text text-anchor="middle" x="357" y="-552.1" font-family="Times,serif" font-size="8.00">flush</text>
<text text-anchor="end" x="378" y="-543.1" font-family="Times,serif" font-size="8.00">0 (0.0%)</text>
<text text-anchor="end" x="378" y="-534.1" font-family="Times,serif" font-size="8.00">of 9 (13.8%)</text>
</g>
<!-- N13&#45;&gt;N14 -->
<g id="edge13" class="edge"><title>N13&#45;&gt;N14</title>
<path fill="none" stroke="black" d="M357,-653.372C357,-634.634 357,-610.441 357,-590.736"/>
<polygon fill="black" stroke="black" points="360.5,-590.605 357,-580.605 353.5,-590.605 360.5,-590.605"/>
<text text-anchor="middle" x="360.5" y="-607.8" font-family="Times,serif" font-size="14.00">9</text>
</g>
<!-- N14&#45;&gt;N10 -->
<g id="edge11" class="edge"><title>N14&#45;&gt;N10</title>
<path fill="none" stroke="black" d="M357,-527.251C357,-510.64 357,-489.079 357,-472.27"/>
<polygon fill="black" stroke="black" points="360.5,-472.011 357,-462.011 353.5,-472.011 360.5,-472.011"/>
<text text-anchor="middle" x="360.5" y="-492.8" font-family="Times,serif" font-size="14.00">9</text>
</g>
<!-- N16&#45;&gt;N5 -->
<g id="edge19" class="edge"><title>N16&#45;&gt;N5</title>
<path fill="none" stroke="black" d="M549.98,-657.604C560.123,-638.51 572.621,-611.525 578,-586 593.076,-514.455 582.758,-429.399 573.345,-377.317"/>
<polygon fill="black" stroke="black" points="576.761,-376.54 571.482,-367.354 569.88,-377.827 576.761,-376.54"/>
<text text-anchor="middle" x="588.5" y="-492.8" font-family="Times,serif" font-size="14.00">3</text>
</g>
<!-- N16&#45;&gt;N15 -->
<g id="edge15" class="edge"><title>N16&#45;&gt;N15</title>
<path fill="none" stroke="black" d="M529.801,-657.805C526.226,-640.136 521.402,-616.294 517.3,-596.019"/>
<polygon fill="black" stroke="black" points="520.705,-595.202 515.292,-586.095 513.844,-596.59 520.705,-595.202"/>
<text text-anchor="middle" x="524.5" y="-607.8" font-family="Times,serif" font-size="14.00">4</text>
</g>
<!-- N20 -->
<g id="node21" class="node"><title>N20</title>
<polygon fill="none" stroke="black" points="817.5,-715.5 742.5,-715.5 742.5,-653.5 817.5,-653.5 817.5,-715.5"/>
<text text-anchor="middle" x="780" y="-698.06" font-family="Times,serif" font-size="16.80">Prefix</text>
<text text-anchor="middle" x="780" y="-680.06" font-family="Times,serif" font-size="16.80">(inline)</text>
<text text-anchor="end" x="809.5" y="-662.06" font-family="Times,serif" font-size="16.80">2 (3.1%)</text>
</g>
<!-- N17&#45;&gt;N20 -->
<g id="edge26" class="edge"><title>N17&#45;&gt;N20</title>
<path fill="none" stroke="black" stroke-dasharray="5,2" d="M700.418,-808.663C716.977,-783.036 738.486,-749.748 754.967,-724.241"/>
<polygon fill="black" stroke="black" points="758.084,-725.867 760.571,-715.568 752.204,-722.068 758.084,-725.867"/>
<text text-anchor="middle" x="739.5" y="-753.8" font-family="Times,serif" font-size="14.00">1</text>
</g>
<!-- N21&#45;&gt;N20 -->
<g id="edge32" class="edge"><title>N21&#45;&gt;N20</title>
<path fill="none" stroke="black" stroke-dasharray="5,2" d="M779.131,-826.756C779.288,-801.249 779.554,-757.917 779.751,-725.956"/>
<polygon fill="black" stroke="black" points="783.253,-725.617 779.815,-715.595 776.253,-725.573 783.253,-725.617"/>
<text text-anchor="middle" x="782.5" y="-753.8" font-family="Times,serif" font-size="14.00">1</text>
</g>
<!-- N25 -->
<g id="node26" class="node"><title>N25</title>
<polygon fill="none" stroke="black" points="890,-706.5 836,-706.5 836,-662.5 890,-662.5 890,-706.5"/>
<text text-anchor="middle" x="863" y="-696.1" font-family="Times,serif" font-size="8.00">operator</text>
<text text-anchor="middle" x="863" y="-687.1" font-family="Times,serif" font-size="8.00">new</text>
<text text-anchor="end" x="882" y="-678.1" font-family="Times,serif" font-size="8.00">0 (0.0%)</text>
<text text-anchor="end" x="882" y="-669.1" font-family="Times,serif" font-size="8.00">of 1 (1.5%)</text>
</g>
<!-- N21&#45;&gt;N25 -->
<g id="edge24" class="edge"><title>N21&#45;&gt;N25</title>
<path fill="none" stroke="black" d="M789.982,-826.756C804.634,-798.411 830.665,-748.052 847.364,-715.749"/>
<polygon fill="black" stroke="black" points="850.533,-717.24 852.016,-706.749 844.315,-714.025 850.533,-717.24"/>
<text text-anchor="middle" x="831.5" y="-753.8" font-family="Times,serif" font-size="14.00">1</text>
</g>
<!-- N23 -->
<g id="node24" class="node"><title>N23</title>
<polygon fill="none" stroke="black" points="904,-571.5 822,-571.5 822,-536.5 904,-536.5 904,-571.5"/>
<text text-anchor="middle" x="863" y="-561.1" font-family="Times,serif" font-size="8.00">__GI___libc_malloc</text>
<text text-anchor="end" x="896" y="-552.1" font-family="Times,serif" font-size="8.00">0 (0.0%)</text>
<text text-anchor="end" x="896" y="-543.1" font-family="Times,serif" font-size="8.00">of 1 (1.5%)</text>
</g>
<!-- N24 -->
<g id="node25" class="node"><title>N24</title>
<polygon fill="none" stroke="black" points="904,-464.5 822,-464.5 822,-424.5 904,-424.5 904,-464.5"/>
<text text-anchor="middle" x="863" y="-449.14" font-family="Times,serif" font-size="14.20">_int_malloc</text>
<text text-anchor="end" x="896" y="-433.14" font-family="Times,serif" font-size="14.20">1 (1.5%)</text>
</g>
<!-- N23&#45;&gt;N24 -->
<g id="edge33" class="edge"><title>N23&#45;&gt;N24</title>
<path fill="none" stroke="black" d="M863,-536.203C863,-519.785 863,-494.451 863,-474.726"/>
<polygon fill="black" stroke="black" points="866.5,-474.719 863,-464.719 859.5,-474.719 866.5,-474.719"/>
<text text-anchor="middle" x="866.5" y="-492.8" font-family="Times,serif" font-size="14.00">1</text>
</g>
<!-- N25&#45;&gt;N23 -->
<g id="edge30" class="edge"><title>N25&#45;&gt;N23</title>
<path fill="none" stroke="black" d="M863,-662.281C863,-640.274 863,-605.802 863,-581.898"/>
<polygon fill="black" stroke="black" points="866.5,-581.741 863,-571.741 859.5,-581.741 866.5,-581.741"/>
<text text-anchor="middle" x="866.5" y="-607.8" font-family="Times,serif" font-size="14.00">1</text>
</g>
<!-- N26 -->
<g id="node27" class="node"><title>N26</title>
<polygon fill="none" stroke="black" points="724,-711 670,-711 670,-658 724,-658 724,-711"/>
<text text-anchor="middle" x="697" y="-700.6" font-family="Times,serif" font-size="8.00">std</text>
<text text-anchor="middle" x="697" y="-691.6" font-family="Times,serif" font-size="8.00">istream</text>
<text text-anchor="middle" x="697" y="-682.6" font-family="Times,serif" font-size="8.00">_M_extract</text>
<text text-anchor="end" x="716" y="-673.6" font-family="Times,serif" font-size="8.00">0 (0.0%)</text>
<text text-anchor="end" x="716" y="-664.6" font-family="Times,serif" font-size="8.00">of 1 (1.5%)</text>
</g>
<!-- N30 -->
<g id="node31" class="node"><title>N30</title>
<polygon fill="none" stroke="black" points="728,-580.5 674,-580.5 674,-527.5 728,-527.5 728,-580.5"/>
<text text-anchor="middle" x="701" y="-570.1" font-family="Times,serif" font-size="8.00">std</text>
<text text-anchor="middle" x="701" y="-561.1" font-family="Times,serif" font-size="8.00">num_get</text>
<text text-anchor="middle" x="701" y="-552.1" font-family="Times,serif" font-size="8.00">do_get</text>
<text text-anchor="end" x="720" y="-543.1" font-family="Times,serif" font-size="8.00">0 (0.0%)</text>
<text text-anchor="end" x="720" y="-534.1" font-family="Times,serif" font-size="8.00">of 1 (1.5%)</text>
</g>
<!-- N26&#45;&gt;N30 -->
<g id="edge34" class="edge"><title>N26&#45;&gt;N30</title>
<path fill="none" stroke="black" d="M697.8,-657.805C698.397,-638.632 699.22,-612.191 699.882,-590.926"/>
<polygon fill="black" stroke="black" points="703.389,-590.755 700.202,-580.651 696.392,-590.537 703.389,-590.755"/>
<text text-anchor="middle" x="702.5" y="-607.8" font-family="Times,serif" font-size="14.00">1</text>
</g>
<!-- N27&#45;&gt;N26 -->
<g id="edge29" class="edge"><title>N27&#45;&gt;N26</title>
<path fill="none" stroke="black" d="M587.423,-817.889C593.256,-805.754 601.395,-792.427 612,-783 627.791,-768.963 640.418,-779.27 656,-765 669.058,-753.041 678.618,-735.963 685.205,-720.7"/>
<polygon fill="black" stroke="black" points="688.621,-721.587 689.111,-711.003 682.128,-718.971 688.621,-721.587"/>
<text text-anchor="middle" x="671.5" y="-753.8" font-family="Times,serif" font-size="14.00">1</text>
</g>
<!-- N29 -->
<g id="node30" class="node"><title>N29</title>
<polygon fill="none" stroke="black" points="736.5,-471 671.5,-471 671.5,-418 736.5,-418 736.5,-471"/>
<text text-anchor="middle" x="704" y="-460.6" font-family="Times,serif" font-size="8.00">std</text>
<text text-anchor="middle" x="704" y="-451.6" font-family="Times,serif" font-size="8.00">num_get</text>
<text text-anchor="middle" x="704" y="-442.6" font-family="Times,serif" font-size="8.00">_M_extract_int</text>
<text text-anchor="end" x="728.5" y="-433.6" font-family="Times,serif" font-size="8.00">0 (0.0%)</text>
<text text-anchor="end" x="728.5" y="-424.6" font-family="Times,serif" font-size="8.00">of 1 (1.5%)</text>
</g>
<!-- N29&#45;&gt;N5 -->
<g id="edge25" class="edge"><title>N29&#45;&gt;N5</title>
<path fill="none" stroke="black" d="M686.569,-417.881C678.384,-406.967 668.012,-394.573 657,-385 652.296,-380.911 647.254,-376.949 642.037,-373.151"/>
<polygon fill="black" stroke="black" points="643.917,-370.194 633.719,-367.321 639.899,-375.926 643.917,-370.194"/>
<text text-anchor="middle" x="674.5" y="-388.8" font-family="Times,serif" font-size="14.00">1</text>
</g>
<!-- N30&#45;&gt;N29 -->
<g id="edge28" class="edge"><title>N30&#45;&gt;N29</title>
<path fill="none" stroke="black" d="M701.719,-527.251C702.104,-513.423 702.586,-496.164 703.007,-481.072"/>
<polygon fill="black" stroke="black" points="706.507,-481.133 703.287,-471.039 699.51,-480.937 706.507,-481.133"/>
<text text-anchor="middle" x="705.5" y="-492.8" font-family="Times,serif" font-size="14.00">1</text>
</g>
</g>
</g></svg>
